<svg width="306" height="48" viewBox="0 0 306 48" fill="NONE" xmlns="http://www.w3.org/2000/svg">
<g clip-path="url(#clip0)">
<path d="M109.269 37.4593V11.8896H118.099V16.0676C118.883 14.7195 119.992 13.5941 121.325 12.7968C122.829 11.7771 124.602 11.2345 126.415 11.239C126.782 11.2362 127.149 11.2702 127.509 11.3405V19.9473C126.531 19.6926 125.525 19.5564 124.515 19.5414C121.52 19.5414 119.076 20.8008 118.076 22.6153V37.4593H109.269Z" fill="white"/>
<path d="M131.149 37.4593H139.979V11.8896H131.149V37.4593ZM131.149 7.49664H139.979V0H131.149V7.49664Z" fill="white"/>
<path d="M144.199 37.4593V11.8896H153.029V14.9216C154.876 12.4566 157.474 11.2509 160.818 11.2509C162.248 11.269 163.649 11.6697 164.875 12.4122C166.102 13.1546 167.112 14.2121 167.801 15.4767C168.761 14.171 170.01 13.1092 171.448 12.3756C172.887 11.642 174.475 11.2569 176.087 11.2509C181.413 11.2509 185.118 14.8321 185.118 21.517V37.4593H176.288V23.2778C176.288 20.5083 175.24 19.1534 173.092 19.1534C172.272 19.1341 171.463 19.3478 170.758 19.7699C170.053 20.1921 169.479 20.8058 169.103 21.5409V37.4593H160.267V23.2778C160.267 20.5083 159.22 19.1534 157.071 19.1534C156.245 19.1405 155.432 19.3563 154.719 19.7772C154.006 20.1982 153.422 20.8082 153.029 21.5409V37.4593H144.199Z" fill="white"/>
<path d="M102.807 3.80204C100.108 1.28326 96.7166 0.0417786 92.5738 0.0417786H78.1805V37.5489H86.9988V7.4847L92.5561 7.51455C93.3039 7.49582 94.0475 7.63237 94.7408 7.91571C95.4341 8.19905 96.0622 8.62312 96.5862 9.1616C97.1101 9.70007 97.5187 10.3414 97.7865 11.0459C98.0543 11.7503 98.1756 12.5027 98.1429 13.2564C98.1662 14.0074 98.0383 14.7554 97.7671 15.4552C97.4958 16.155 97.0868 16.7922 96.5647 17.3282C96.0426 17.8643 95.4182 18.2881 94.7293 18.5741C94.0403 18.8601 93.301 19.0023 92.5561 18.9923H90.7806V26.4591H92.5561C96.6989 26.4591 100.09 25.1699 102.789 22.6511C104.093 21.4697 105.13 20.0183 105.828 18.3959C106.525 16.7735 106.867 15.0184 106.831 13.2504C106.868 11.4745 106.526 9.71138 105.829 8.08027C105.131 6.44915 104.095 4.98813 102.789 3.79607" fill="white"/>
<path d="M247.497 24.3283C247.534 22.5593 247.193 20.8029 246.495 19.1793C245.798 17.5558 244.76 16.1035 243.454 14.9217C240.756 12.3969 237.365 11.1137 233.222 11.1137H231.446V18.5864H233.222C233.968 18.5764 234.708 18.7188 235.397 19.0051C236.087 19.2914 236.712 19.7157 237.235 20.2522C237.757 20.7888 238.167 21.4266 238.438 22.1272C238.71 22.8277 238.838 23.5765 238.815 24.3283C238.846 25.0818 238.723 25.8337 238.454 26.5374C238.185 27.2411 237.776 27.8817 237.252 28.4194C236.727 28.9572 236.099 29.3806 235.406 29.6635C234.713 29.9464 233.969 30.0828 233.222 30.0642L227.664 30.094V0.0298462H218.828V37.6026H233.222C237.365 37.6026 240.756 36.3313 243.454 33.8065C244.76 32.6156 245.797 31.1557 246.494 29.5255C247.191 27.8954 247.533 26.1331 247.497 24.3581" fill="white"/>
<path opacity="0.6" d="M288.143 11.8418H278.313L287.191 24.6745L278.313 37.5071H288.143L292.103 31.7831L297.021 24.6745L292.103 17.5717L288.143 11.8418Z" fill="white"/>
<path d="M296.068 11.8418L294.458 14.1636L296.82 17.5717L299.376 21.2723L305.898 11.8418H296.068Z" fill="white"/>
<path d="M296.814 31.7832L294.458 35.1913L296.068 37.5071H305.898L299.376 28.0826L296.814 31.7832Z" fill="white"/>
<path d="M202.062 18.5805C198.819 18.5805 196.475 21.147 196.475 24.4178C196.475 27.7901 198.842 30.2552 202.062 30.2552C205.282 30.2552 207.655 27.7901 207.655 24.4178C207.655 21.147 205.287 18.5805 202.062 18.5805ZM202.062 37.8592C197.919 37.8592 194.528 36.5999 191.835 34.0333C190.524 32.8116 189.485 31.3223 188.788 29.6644C188.091 28.0065 187.752 26.218 187.793 24.4178C187.754 22.6275 188.094 20.8494 188.791 19.2025C189.488 17.5556 190.526 16.0777 191.835 14.8679C194.528 12.3014 197.925 10.9883 202.062 10.9883C206.199 10.9883 209.602 12.3014 212.295 14.8679C213.604 16.0777 214.642 17.5556 215.339 19.2025C216.036 20.8494 216.376 22.6275 216.337 24.4178C216.377 26.2161 216.037 28.0022 215.34 29.6579C214.643 31.3136 213.605 32.801 212.295 34.0214C209.602 36.5879 206.205 37.8473 202.062 37.8473" fill="white"/>
<path d="M264.387 18.5805C261.138 18.5805 258.795 21.147 258.795 24.4178C258.795 27.7901 261.162 30.2552 264.387 30.2552C267.613 30.2552 269.974 27.7901 269.974 24.4178C269.974 21.147 267.607 18.5805 264.387 18.5805ZM264.387 37.8592C260.245 37.8592 256.848 36.5999 254.155 34.0333C252.844 32.8106 251.806 31.3212 251.109 29.6635C250.413 28.0059 250.073 26.2178 250.113 24.4178C250.075 22.6277 250.416 20.8501 251.113 19.2034C251.81 17.5567 252.847 16.0787 254.155 14.8679C256.848 12.3014 260.245 10.9883 264.387 10.9883C268.53 10.9883 271.921 12.3014 274.614 14.8679C275.923 16.0777 276.961 17.5556 277.658 19.2025C278.355 20.8494 278.696 22.6275 278.656 24.4178C278.695 26.2165 278.355 28.003 277.657 29.6587C276.959 31.3144 275.92 32.8015 274.608 34.0214C271.916 36.5879 268.524 37.8473 264.382 37.8473" fill="white"/>
<path d="M32.0949 10.8271C30.4725 10.8339 28.8741 11.222 27.4266 11.9607C25.979 12.6995 24.7222 13.7685 23.756 15.0828C23.0611 13.8105 22.0444 12.7465 20.8094 11.999C19.5745 11.2515 18.1652 10.8472 16.7251 10.8271C13.3576 10.8271 10.7476 12.0209 8.88926 14.5277V11.4837H0V37.2206H8.87743V21.1589C9.27418 20.4243 9.86292 19.8134 10.5797 19.3925C11.2965 18.9716 12.114 18.7568 12.9433 18.7714C15.1035 18.7714 16.1628 20.1442 16.1628 22.9495V37.2206H25.0403V21.1589C25.4218 20.4219 26.0006 19.8075 26.7109 19.3854C27.4212 18.9634 28.2346 18.7507 29.0588 18.7714C31.213 18.7714 32.2724 20.1442 32.2724 22.9495V37.2206H41.1498V21.1589C41.1498 14.4263 37.4331 10.8271 32.0593 10.8271" fill="white"/>
<path d="M53.5782 11.8299H44.1326L52.8621 31.8309L57.3126 22.0303L53.5782 11.8299Z" fill="white"/>
<path d="M73.8187 11.8299H64.5744L59.3248 27.1216V27.1634L59.2716 27.3186L54.9808 36.7013C53.9214 39.3395 52.5188 40.3482 50.2462 40.3482C48.78 40.3613 47.3414 39.9468 46.1034 39.1544V46.854C47.8854 47.6673 49.8232 48.0749 51.779 48.0478C56.7504 48.0478 60.2658 45.4156 62.3727 40.193L73.8187 11.8299Z" fill="white"/>
</g>
<defs>
<clipPath id="clip0">
<rect width="305.898" height="48" fill="white"/>
</clipPath>
</defs>
</svg>
