<svg id="logo-myPrimobox-couleur" xmlns="http://www.w3.org/2000/svg" width="187.999" height="29.25" viewBox="0 0 187.999 29.25">
    <defs>
        <style>
            .cls-1{fill:#0075b0}
        </style>
    </defs>
    <g id="Groupe_14149" data-name="Groupe 14149" transform="translate(-55.249 -65.041)">
        <path id="Tracé_15653" data-name="Tracé 15653" class="cls-1" d="M239.878 99.849V84.268h5.429v2.546a6.27 6.27 0 0 1 5.123-2.945 3.6 3.6 0 0 1 .675.061v5.245a8.015 8.015 0 0 0-1.84-.246 4.437 4.437 0 0 0-3.957 1.871v9.048z" transform="translate(-117.475 -11.98)"/>
        <path id="Tracé_15654" data-name="Tracé 15654" class="cls-1" d="M276.847 87.869h5.429V72.288h-5.429zm0-18.26h5.429v-4.568h-5.429z" transform="translate(-140.997)"/>
        <path id="Tracé_15655" data-name="Tracé 15655" class="cls-1" d="M298.894 99.849V84.268h5.429v1.84a5.638 5.638 0 0 1 4.786-2.239 4.977 4.977 0 0 1 4.293 2.576 6.367 6.367 0 0 1 5.091-2.576c3.283 0 5.552 2.177 5.552 6.257v9.722h-5.429V91.2c0-1.687-.644-2.515-1.963-2.515a2.693 2.693 0 0 0-2.454 1.442v9.722h-5.429V91.2c0-1.687-.645-2.515-1.963-2.515a2.772 2.772 0 0 0-2.484 1.442v9.722z" transform="translate(-155.025 -11.98)"/>
        <path id="Tracé_15656" data-name="Tracé 15656" class="cls-1" d="M202.485 67.407a8.851 8.851 0 0 0-6.288-2.291h-8.844v22.855h5.429v-18.32l3.415.017a3.355 3.355 0 0 1 3.435 3.5 3.39 3.39 0 0 1-3.435 3.5h-1.084v4.551h1.084a8.875 8.875 0 0 0 6.288-2.321 7.88 7.88 0 0 0 0-11.487" transform="translate(-84.054 -.048)"/>
        <path id="Tracé_15657" data-name="Tracé 15657" class="cls-1" d="M442.619 79.9a7.483 7.483 0 0 0-2.485-5.729 8.874 8.874 0 0 0-6.288-2.322h-1.083V76.4h1.083a3.391 3.391 0 0 1 3.436 3.5 3.355 3.355 0 0 1-3.436 3.5l-3.415.017V65.093H425v22.876h8.844a8.868 8.868 0 0 0 6.288-2.312 7.546 7.546 0 0 0 2.485-5.758" transform="translate(-235.265 -.033)"/>
        <path id="Tracé_15658" data-name="Tracé 15658" d="M531.547 84.882h-6.042l5.456 7.821-5.456 7.82h6.043l2.434-3.489L537 92.7l-3.022-4.33z" transform="translate(-299.212 -12.624)" style="opacity:.6;fill:#0075b0"/>
        <path id="Tracé_15659" data-name="Tracé 15659" class="cls-1" d="m553.78 84.881-.988 1.416 1.448 2.075 1.573 2.255 4.009-5.746z" transform="translate(-316.574 -12.624)"/>
        <path id="Tracé_15660" data-name="Tracé 15660" class="cls-1" d="m554.24 114.346-1.448 2.075.987 1.413h6.043l-4.008-5.745z" transform="translate(-316.574 -29.936)"/>
        <path id="Tracé_15661" data-name="Tracé 15661" class="cls-1" d="M381.327 88.067a3.421 3.421 0 0 0-3.436 3.559 3.438 3.438 0 1 0 6.871 0 3.421 3.421 0 0 0-3.435-3.559m0 11.748a8.765 8.765 0 0 1-6.288-2.331 8.112 8.112 0 0 1 0-11.686 9.549 9.549 0 0 1 12.575 0 8.112 8.112 0 0 1 0 11.686 8.765 8.765 0 0 1-6.287 2.331" transform="translate(-201.893 -11.704)"/>
        <path id="Tracé_15662" data-name="Tracé 15662" class="cls-1" d="M486.629 88.067a3.421 3.421 0 0 0-3.435 3.559 3.437 3.437 0 1 0 6.871 0 3.421 3.421 0 0 0-3.435-3.559m0 11.748a8.766 8.766 0 0 1-6.288-2.331 8.113 8.113 0 0 1 0-11.686 9.55 9.55 0 0 1 12.576 0 8.114 8.114 0 0 1 0 11.686 8.765 8.765 0 0 1-6.288 2.331" transform="translate(-268.895 -11.704)"/>
        <path id="Tracé_15663" data-name="Tracé 15663" class="cls-1" d="M74.973 83.182a6.406 6.406 0 0 0-5.125 2.593 5.011 5.011 0 0 0-4.321-2.593 5.674 5.674 0 0 0-4.815 2.253v-1.853h-5.463v15.682h5.463v-9.786a2.789 2.789 0 0 1 2.5-1.45c1.327 0 1.976.833 1.976 2.53v8.705h5.463v-9.785a2.71 2.71 0 0 1 2.47-1.45c1.327 0 1.975.833 1.975 2.53v8.705h5.464v-9.785c0-4.1-2.284-6.3-5.587-6.3" transform="translate(0 -11.543)"/>
        <path id="Tracé_15664" data-name="Tracé 15664" class="cls-1" d="M135.627 84.865h-5.8l5.362 12.188 2.736-5.971z" transform="translate(-47.45 -12.614)"/>
        <path id="Tracé_15665" data-name="Tracé 15665" class="cls-1" d="M150.225 84.865h-5.68l-3.227 9.318v.005l-.013.027-.033.095v-.012l-2.62 5.721c-.649 1.6-1.512 2.222-2.9 2.222a4.655 4.655 0 0 1-2.532-.74v4.692a8.175 8.175 0 0 0 3.488.71c3.056 0 5.217-1.605 6.513-4.785z" transform="translate(-49.608 -12.614)"/>
    </g>
</svg>
