<svg xmlns="http://www.w3.org/2000/svg" width="84.949" height="85.019" viewBox="0 0 84.949 85.019">
    <defs>
        <style>
            .cls-3{opacity:.1}.cls-5{fill:#2975b0}.cls-6{fill:#74a4ff}
        </style>
    </defs>
    <g id="Groupe_15460" data-name="Groupe 15460" transform="translate(-299.915 -342.431)">
        <path id="Tracé_15822" data-name="Tracé 15822" d="M349.527 368.7a41.051 41.051 0 0 0-39.192 11.9 45.376 45.376 0 0 0-5.545 7.553c-4.09 6.99-6.339 21.112-3.807 28.983C305.7 431.794 319.6 439.411 335 441.818c16.021 2.5 31.262-2.01 42.277-12.491 4.43-4.215 6.134-11.217 5.355-17.27-.481-3.741-1.712-7.044-4.537-9.442-2.986-2.534-6.478-3.612-9.637-5.665a21.1 21.1 0 0 1-7.092-8.312 15.121 15.121 0 0 1-1.8-6.322c-.048-2.721.478-5.593-.578-8.182-1.366-3.352-6.118-4.627-9.461-5.434z" transform="translate(0 -15.044)" style="opacity:.221;fill:#237dfc"/>
        <path id="Tracé_15823" data-name="Tracé 15823" d="m570.8 499.526-1.967 13.227-5.087 34.217a4.14 4.14 0 0 1-4.7 3.487l-7.882-1.172-28.508-4.239-1.1-.163a4.141 4.141 0 0 1-3.487-4.7l4.585-30.844 2.364-15.9.1-.7a4.141 4.141 0 0 1 4.7-3.487l25.5 3.791 6.881 1.023 5.11.759a4.141 4.141 0 0 1 3.491 4.701z" transform="translate(-205.194 -129.435)" style="opacity:.544;fill:#237dfc"/>
        <path id="Tracé_15824" data-name="Tracé 15824" class="cls-3" d="M642.422 561.65v12.061l-5.087 34.218a4.119 4.119 0 0 1-1.164 2.315h-11.422l-28.508-4.238v-47.87a4.137 4.137 0 0 1 4.14-4.14h34.387l1.023 1.023z" transform="translate(-278.782 -190.393)"/>
        <path id="Tracé_15825" data-name="Tracé 15825" d="M620.305 539.532v44.453a4.14 4.14 0 0 1-4.141 4.14h-37.9a4.14 4.14 0 0 1-4.14-4.14v-47.967a4.14 4.14 0 0 1 4.14-4.14h34.387z" transform="translate(-257.974 -169.585)" style="fill:#fff"/>
        <path id="Tracé_15826" data-name="Tracé 15826" class="cls-3" d="M1249.238 556.256v1.053h-2.461a4.14 4.14 0 0 1-4.14-4.141v-3.513z" transform="translate(-886.907 -186.309)"/>
        <path id="Tracé_15836" data-name="Tracé 15836" class="cls-5" d="M1232.514 539.532H1229a4.14 4.14 0 0 1-4.141-4.14v-3.513z" transform="translate(-870.183 -169.585)"/>
        <path id="Oval" class="cls-6" d="M70.958 19.455a4.008 4.008 0 1 0 4.008 4.008 3.957 3.957 0 0 0-4.008-4.008zm0 2a2 2 0 1 1-2 2 2.01 2.01 0 0 1 2-1.996z" transform="translate(298.702 322.976)"/>
        <circle id="Oval-2" data-name="Oval" class="cls-6" cx="1.517" cy="1.517" r="1.517" transform="translate(381.831 354.997)"/>
        <circle id="Oval-3" data-name="Oval" class="cls-6" cx="1.517" cy="1.517" r="1.517" transform="translate(305.342 353.481)"/>
        <path id="plus" class="cls-5" d="M12.713 4A1.089 1.089 0 0 1 13.8 5.089v6.535h6.535a1.089 1.089 0 0 1 0 2.178H13.8v6.535a1.089 1.089 0 0 1-2.178 0V13.8H5.089a1.089 1.089 0 0 1 0-2.178h6.535V5.089A1.089 1.089 0 0 1 12.713 4z" transform="translate(326.528 379.014)"/>
    </g>
</svg>
